<?xml version="1.0" encoding="utf-8"?>
<!-- Generator: Adobe Illustrator 18.1.1, SVG Export Plug-In . SVG Version: 6.00 Build 0)  -->
<!DOCTYPE svg PUBLIC "-//W3C//DTD SVG 1.1//EN" "http://www.w3.org/Graphics/SVG/1.1/DTD/svg11.dtd">
<svg version="1.1" id="Livello_1" xmlns="http://www.w3.org/2000/svg" xmlns:xlink="http://www.w3.org/1999/xlink" x="0px" y="0px"
	 viewBox="0 0 1024 1024" enable-background="new 0 0 1024 1024" xml:space="preserve">
<circle fill="#B6B6B6" stroke="#B6B6B6" stroke-width="10" stroke-miterlimit="10" cx="663.6" cy="389.5" r="60.2"/>
<g>
	<g>
		<path fill="#B6B6B6" stroke="#B6B6B6" stroke-miterlimit="10" d="M783.8,298.3c14.2-7.2,30.3-10.1,46.1-8.4
			c7.3,0.8,14.6,2.6,21.4,5.3c5.5,2.2,11.5,7.4,17.5,3.8c2.9-1.8,5.4-4.4,8.2-6.4s5.7-3.8,8.6-5.4c6.5-3.6,13.4-6.3,20.5-8.2
			c14.8-3.9,30.4-4,45.2-0.3c3.1,0.8,4.5-4,1.3-4.8c-28.4-7.1-59.5-0.7-82.5,17.6c-2.1,1.7-3.2,3.2-6,3.2c-2.6,0-4.1-1.1-6.4-2.2
			c-3.1-1.5-6.4-2.8-9.7-3.9c-7.4-2.5-15.2-3.8-23-4.2c-15.2-0.7-30.2,2.6-43.8,9.5C778.4,295.4,781,299.8,783.8,298.3L783.8,298.3z
			"/>
	</g>
</g>
<polygon fill="#B6B6B6" points="0,1024 432,448 864,1024 "/>
<polyline fill="#B6B6B6" points="1026,1024 450,1021 450,1024 738,637 1026,1024 "/>
</svg>
