<?xml version="1.0" encoding="utf-8"?>
<!-- Generator: Adobe Illustrator 19.2.1, SVG Export Plug-In . SVG Version: 6.00 Build 0)  -->
<svg version="1.1" id="Livello_1" xmlns="http://www.w3.org/2000/svg" xmlns:xlink="http://www.w3.org/1999/xlink" x="0px" y="0px"
	 viewBox="0 0 1024 831.1" style="enable-background:new 0 0 1024 831.1;" xml:space="preserve">
<style type="text/css">
	.st0{fill:#B6B6B6;stroke:#B6B6B6;stroke-width:10;stroke-miterlimit:10;}
	.st1{fill:#B6B6B6;stroke:#B6B6B6;stroke-miterlimit:10;}
	.st2{fill:#B6B6B6;}
	.st3{fill:#FFFFFF;stroke:#B6B6B6;stroke-width:32;stroke-miterlimit:10;}
</style>
<ellipse class="st0" cx="226.7" cy="55.2" rx="17.3" ry="14.1"/>
<g>
	<g>
		<path class="st1" d="M261.3,33.8c4.1-1.7,8.7-2.4,13.3-2c2.1,0.2,4.2,0.6,6.2,1.2c1.6,0.5,3.3,1.7,5,0.9c0.8-0.4,1.6-1,2.4-1.5
			c0.8-0.5,1.6-0.9,2.5-1.3c1.9-0.8,3.9-1.5,5.9-1.9c4.3-0.9,8.8-0.9,13-0.1c0.9,0.2,1.3-0.9,0.4-1.1c-8.2-1.7-17.1-0.2-23.8,4.1
			c-0.6,0.4-0.9,0.8-1.7,0.8c-0.7,0-1.2-0.3-1.8-0.5c-0.9-0.4-1.8-0.7-2.8-0.9c-2.1-0.6-4.4-0.9-6.6-1c-4.4-0.2-8.7,0.6-12.6,2.2
			C259.8,33.2,260.5,34.2,261.3,33.8L261.3,33.8z"/>
	</g>
</g>
<polygon class="st2" points="35.6,203.9 160,68.9 284.4,203.9 "/>
<polyline class="st2" points="331.1,203.9 165.2,203.2 165.2,203.9 248.2,113.2 331.1,203.9 "/>
<rect x="31.1" y="395.6" class="st2" width="954" height="37.5"/>
<rect x="404.6" y="27.1" class="st2" width="580.5" height="37.5"/>
<rect x="404.6" y="149.9" class="st2" width="580.5" height="37.5"/>
<rect x="31.1" y="272.8" class="st2" width="954" height="37.5"/>
<rect x="404.6" y="537.2" class="st3" width="565.5" height="245.7"/>
<rect x="406.1" y="610.8" class="st2" width="556.5" height="30.5"/>
<rect x="406.1" y="685.8" class="st2" width="563.5" height="30.5"/>
<rect x="526.6" y="530.5" class="st2" width="32" height="252.5"/>
<circle class="st2" cx="194.6" cy="660.1" r="127.3"/>
</svg>
