<?xml version="1.0" standalone="no"?>
<!DOCTYPE svg PUBLIC "-//W3C//DTD SVG 1.1//EN" "http://www.w3.org/Graphics/SVG/1.1/DTD/svg11.dtd" >
<svg xmlns="http://www.w3.org/2000/svg">
<metadata>Generated by IcoMoon</metadata>
<defs>
<font id="svgCharts" horiz-adv-x="1024">
<font-face units-per-em="1024" ascent="960" descent="-64" />
<missing-glyph horiz-adv-x="1024" />
<glyph unicode="&#x20;" horiz-adv-x="512" d="" />
<glyph unicode="&#xe695;" glyph-name="pie" d="M448 384v448c-247.424 0-448-200.576-448-448s200.576-448 448-448 448 200.576 448 448c0 72.034-17.028 140.084-47.236 200.382l-400.764-200.382zM912.764 712.382c-73.552 146.816-225.374 247.618-400.764 247.618v-448l400.764 200.382z" />
<glyph unicode="&#xe696;" glyph-name="line" d="M142.6 89.412c-61.837 0-111.964 51.856-111.964 115.825s50.127 115.825 111.964 115.825c3.298 0 6.557-0.179 9.783-0.466l120.352 207.502c-11.476 18.182-18.171 39.89-18.171 63.223 0 63.969 50.127 115.825 111.964 115.825s111.964-51.856 111.964-115.825c0-23.336-6.695-45.041-18.171-63.223l120.352-207.502c3.226 0.287 6.485 0.466 9.783 0.466 2.491 0 4.954-0.113 7.406-0.278l198.684 359.687c-12.288 18.59-19.484 41.065-19.484 65.284 0 63.969 50.127 115.825 111.964 115.825s111.964-51.856 111.964-115.825c0-63.969-50.127-115.825-111.964-115.825-2.496 0-4.954 0.113-7.406 0.28l-198.684-359.689c12.288-18.587 19.484-41.065 19.484-65.284 0-63.969-50.127-115.825-111.964-115.825s-111.964 51.856-111.964 115.825c0 23.334 6.695 45.041 18.168 63.223l-120.349 207.5c-3.226-0.287-6.485-0.466-9.783-0.466s-6.557 0.176-9.783 0.466l-120.352-207.502c11.476-18.18 18.171-39.887 18.171-63.221 0-63.969-50.127-115.825-111.964-115.825z" />
<glyph unicode="&#xe6c2;" glyph-name="geo" d="M874.040 810.038c96.702-96.704 149.96-225.28 149.96-362.040s-53.258-265.334-149.96-362.038c-96.706-96.702-225.28-149.96-362.040-149.96s-265.334 53.258-362.040 149.96c-96.702 96.704-149.96 225.278-149.96 362.038s53.254 265.336 149.96 362.040c96.706 96.704 225.28 149.962 362.040 149.962s265.334-53.258 362.040-149.962zM828.784 131.214c63.058 63.060 104.986 141.608 122.272 227.062-13.474-19.836-26.362-27.194-34.344 17.206-8.22 72.39-74.708 26.148-116.516 51.86-44.004-29.658-142.906 57.662-126.098-40.824 25.934-44.422 140.008 59.45 83.148-34.542-36.274-65.616-132.642-210.932-120.106-286.258 1.582-109.744-112.134-22.884-151.314 13.52-26.356 72.92-8.982 200.374-77.898 236.086-74.802 3.248-139.004 10.046-167.994 93.67-17.446 59.828 18.564 148.894 82.678 162.644 93.85 58.966 127.374-69.054 215.39-71.434 27.328 28.594 101.816 37.686 107.992 69.75-57.75 10.19 73.268 48.558-5.528 70.382-43.47-5.112-71.478-45.074-48.368-78.958-84.238-19.642-86.936 121.904-167.91 77.258-2.058-70.59-132.222-22.886-45.036-8.572 29.956 13.088-48.86 51.016-6.28 44.124 20.916 1.136 91.332 25.812 72.276 42.402 39.21 24.34 72.16-58.29 110.538 1.882 27.708 46.266-11.62 54.808-46.35 31.356-19.58 21.924 34.57 69.276 82.332 89.738 15.918 6.82 31.122 10.536 42.746 9.484 24.058-27.792 68.55-32.606 70.878 3.342-59.582 28.534-125.276 43.608-193.292 43.608-97.622 0-190.47-31.024-267.308-88.39 20.65-9.46 32.372-21.238 12.478-36.296-15.456-46.054-78.17-107.876-133.224-99.124-28.586-49.296-47.412-103.606-55.46-160.528 46.112-15.256 56.744-45.45 46.836-55.55-23.496-20.488-37.936-49.53-45.376-81.322 15.010-91.836 58.172-176.476 125.27-243.576 84.616-84.614 197.118-131.214 316.784-131.214 119.664 0 232.168 46.6 316.784 131.214z" />
<glyph unicode="&#xe7c4;" glyph-name="lcursor" d="M0 448c0-176.736 143.264-320 320-320 320 0 704 320 704 320s-384 320-704 320c-176.736 0-320-143.264-320-320zM516 448c0-108.256-87.744-196-196-196s-196 87.744-196 196c0 108.256 87.744 196 196 196s196-87.744 196-196zM320 324c-68.48 0-124 55.52-124 124s55.52 124 124 124c68.48 0 124-55.52 124-124s-55.52-124-124-124z" />
<glyph unicode="&#xe900;" glyph-name="bars" d="M768 960h256v-1024h-256zM384 704h256v-768h-256zM0 448h256v-512h-256z" />
<glyph unicode="&#xe901;" glyph-name="image" d="M959.884 832c0.040-0.034 0.082-0.076 0.116-0.116v-767.77c-0.034-0.040-0.076-0.082-0.116-0.116h-895.77c-0.040 0.034-0.082 0.076-0.114 0.116v767.772c0.034 0.040 0.076 0.082 0.114 0.114h895.77zM960 896h-896c-35.2 0-64-28.8-64-64v-768c0-35.2 28.8-64 64-64h896c35.2 0 64 28.8 64 64v768c0 35.2-28.8 64-64 64v0zM832 672c0-53.020-42.98-96-96-96s-96 42.98-96 96 42.98 96 96 96 96-42.98 96-96zM896 128h-768v128l224 384 256-320h64l224 192z" />
<glyph unicode="&#xe902;" glyph-name="ring" d="M512 960c-282.77 0-512-229.23-512-512s229.23-512 512-512c282.77 0 512 229.23 512 512s-229.23 512-512 512zM512 704c141.384 0 256-114.616 256-256s-114.616-256-256-256c-141.384 0-256 114.616-256 256s114.616 256 256 256z" />
<glyph unicode="&#xe905;" glyph-name="rcursor" d="M512 960c-176.732 0-320-143.268-320-320 0-320 320-704 320-704s320 384 320 704c0 176.732-143.27 320-320 320zM512 444c-108.248 0-196 87.752-196 196s87.752 196 196 196 196-87.752 196-196-87.752-196-196-196zM388 640c0 68.483 55.517 124 124 124s124-55.517 124-124c0-68.483-55.517-124-124-124s-124 55.517-124 124z" />
<glyph unicode="&#xe90e;" glyph-name="hbars" d="M1024 192v-256h-1024v256zM768 576v-256h-768v256zM512 960v-256h-512v256z" />
<glyph unicode="&#xe90f;" glyph-name="hstack" d="M704 608v192c0 17.6-14.4 32-32 32h-576c-17.6 0-32-14.4-32-32v-192c0-17.6 14.4-32 32-32h576c17.6 0 32 14.4 32 32zM128 608v192h256v-192h-256zM832 288v192c0 17.6-14.4 32-32 32h-704c-17.6 0-32-14.4-32-32v-192c0-17.6 14.4-32 32-32h704c17.6 0 32 14.4 32 32zM128 288v192h320v-192h-320zM960-32v192c0 17.6-14.4 32-32 32h-832c-17.6 0-32-14.4-32-32v-192c0-17.6 14.4-32 32-32h832c17.6 0 32 14.4 32 32zM128-32v192h384v-192h-384z" />
<glyph unicode="&#xe911;" glyph-name="treemap" d="M47.277 414.723h431.446v-431.446h-431.446v431.446zM47.277 910.723h431.446v-431.446h-431.446v431.446zM543.277 414.723h431.446v-431.446h-431.446v431.446zM543.277 910.723h431.446v-431.446h-431.446v431.446z" />
<glyph unicode="&#xe912;" glyph-name="stack" d="M288 576h-192c-17.6 0-32-14.4-32-32v-576c0-17.6 14.4-32 32-32h192c17.6 0 32 14.4 32 32v576c0 17.6-14.4 32-32 32zM288 0h-192v256h192v-256zM608 704h-192c-17.6 0-32-14.4-32-32v-704c0-17.6 14.4-32 32-32h192c17.6 0 32 14.4 32 32v704c0 17.6-14.4 32-32 32zM608 0h-192v320h192v-320zM928 832h-192c-17.6 0-32-14.4-32-32v-832c0-17.6 14.4-32 32-32h192c17.6 0 32 14.4 32 32v832c0 17.6-14.4 32-32 32zM928 0h-192v384h192v-384z" />
<glyph unicode="&#xe913;" glyph-name="semaphore" d="M291.806 238.898h-116.446c-9.91 0-17.908-8.344-17.205-18.23 4.158-58.537 118.179-164.54 145.187-188.878 3.628-3.269 5.697-7.918 5.697-12.801v-10.412c0-40.084 32.494-72.578 72.578-72.578h260.748c40.088 0 72.588 32.499 72.588 72.588v10.401c0 4.883 2.069 9.532 5.697 12.801 27.008 24.338 141.028 130.341 145.186 188.878 0.704 9.885-7.295 18.23-17.204 18.23h-116.437c-9.517 0-17.231 7.715-17.231 17.231v78.059c0 4.883 2.069 9.532 5.697 12.801 27.007 24.338 141.024 130.338 145.186 188.867 0.703 9.884-7.297 18.23-17.205 18.23h-116.446c-9.517 0-17.231 7.715-17.231 17.231v78.058c0 4.883 2.069 9.532 5.697 12.801 27.008 24.338 141.028 130.341 145.187 188.878 0.703 9.885-7.297 18.23-17.205 18.23h-116.446c-9.517 0-17.231 7.715-17.231 17.231v0.907c0 40.081-32.493 72.576-72.579 72.576h-260.77c-40.084 0-72.579-32.494-72.579-72.579v-0.907c0-9.517-7.715-17.231-17.231-17.231h-116.446c-9.91 0-17.908-8.345-17.205-18.23 4.158-58.537 118.179-164.54 145.187-188.878 3.628-3.269 5.697-7.918 5.697-12.801v-78.058c0-9.517-7.715-17.231-17.231-17.231h-116.446c-9.91 0-17.908-8.345-17.205-18.23 4.161-58.531 118.179-164.53 145.186-188.867 3.628-3.269 5.697-7.918 5.697-12.801v-78.059c-0.001-9.514-7.716-17.229-17.231-17.229zM512.62 872.519c62.838 0 113.777-50.939 113.777-113.777s-50.939-113.777-113.777-113.777-113.778 50.939-113.778 113.777 50.94 113.777 113.778 113.777zM512.62 561.161c62.838 0 113.777-50.939 113.777-113.778s-50.939-113.777-113.777-113.777-113.778 50.939-113.778 113.778c0 62.838 50.94 113.777 113.778 113.777zM512.62 249.814c62.838 0 113.777-50.939 113.777-113.777s-50.939-113.778-113.777-113.778-113.778 50.94-113.778 113.778 50.94 113.777 113.778 113.777z" />
<glyph unicode="&#xe914;" glyph-name="ring2" d="M275 456c-110.457 0-200-89.543-200-200s89.543-200 200-200c110.457 0 200 89.543 200 200s-89.543 200-200 200zM751.229 456c-110.457 0-200-89.543-200-200s89.543-200 200-200c110.457 0 200 89.543 200 200s-89.543 200-200 200zM508.339 897.492c-110.457 0-200-89.543-200-200s89.543-200 200-200c110.457 0 200 89.543 200 200s-89.543 200-200 200z" />
<glyph unicode="&#xe919;" glyph-name="diamonds" d="M512 960l-320-512 320-512 320 512z" />
<glyph unicode="&#xe91a;" glyph-name="cloud" d="M1024 302.458c0 82.090-56.678 150.9-132.996 169.48-3.242 128.7-108.458 232.062-237.862 232.062-75.792 0-143.266-35.494-186.854-90.732-24.442 31.598-62.69 51.96-105.708 51.96-73.81 0-133.642-59.874-133.642-133.722 0-6.436 0.48-12.76 1.364-18.954-11.222 2.024-22.766 3.138-34.57 3.138-106.998 0.002-193.732-86.786-193.732-193.842 0-107.062 86.734-193.848 193.73-193.848l656.262 0.012c96.138 0.184 174.008 78.212 174.008 174.446z" />
<glyph unicode="&#xe92a;" glyph-name="unchecked_checkbox" d="M160 800v-704h704v704h-704zM224 736h576v-576h-576v576z" />
<glyph unicode="&#xeae2;" glyph-name="synchronize" d="M496 893l-45-45 80-81c-6.387 0.353-12.487 1-19 1-176 0-320-144-320-320 0-48 9.8-92.6 29-131l48 48c-6.4 25.6-13 54.2-13 83 0 140.8 115.2 256 256 256 5.567 0 11.456-0.568 17-1l-78-79 45-45 135 134 22 23-22 23-135 134zM803 579l-48-48c9.6-25.6 13-54.2 13-83 0-140.8-115.2-256-256-256-5.567 0-11.456 0.568-17 1l78 79-45 45-135-134-22-23 22-23 135-134 45 45-80 81c6.248-0.374 12.743-1 19-1 176 0 320 144 320 320 0 48-9.8 92.6-29 131z" />
<glyph unicode="&#xebaf;" glyph-name="pause2" d="M320 768v-640h64v640h-64zM640 768v-640h64v640h-64z" />
<glyph unicode="&#xebe1;" glyph-name="play" d="M288 795v-694l49 32 490 315-539 347zM352 678l357-230-357-230v460z" />
<glyph unicode="&#xec46;" glyph-name="rectangle_filled" d="M96 768v-640h832v640h-832z" />
<glyph unicode="&#xeca2;" glyph-name="sad" d="M512 832c-211.698 0-384-172.302-384-384s172.302-384 384-384c211.698 0 384 172.302 384 384s-172.302 384-384 384zM512 768c177.11 0 320-142.89 320-320s-142.89-320-320-320c-177.11 0-320 142.89-320 320s142.89 320 320 320zM368 576c-26.51 0-48-21.49-48-48s21.49-48 48-48c26.51 0 48 21.49 48 48s-21.49 48-48 48zM656 576c-26.51 0-48-21.49-48-48s21.49-48 48-48c26.51 0 48 21.49 48 48s-21.49 48-48 48zM512 384c-85.355 0-160.654-42.736-207-107l52-37c34.934 48.44 90.723 80 155 80s120.066-31.56 155-80l52 37c-46.346 64.264-121.645 107-207 107z" />
<glyph unicode="&#xed93;" glyph-name="multiply" d="M279 727l-46-46 233-233-233-233 46-46 233 233 233-233 46 46-233 233 233 233-46 46-233-233-233 233z" />
<glyph unicode="&#xedb2;" glyph-name="neutral_emoticon" d="M512 832c-211.698 0-384-172.302-384-384s172.302-384 384-384c211.698 0 384 172.302 384 384s-172.302 384-384 384zM512 768c177.11 0 320-142.89 320-320s-142.89-320-320-320c-177.11 0-320 142.89-320 320s142.89 320 320 320zM368 576c-26.51 0-48-21.49-48-48s21.49-48 48-48c26.51 0 48 21.49 48 48s-21.49 48-48 48zM656 576c-26.51 0-48-21.49-48-48s21.49-48 48-48c26.51 0 48 21.49 48 48s-21.49 48-48 48zM352 320v-64h320v64h-320z" />
<glyph unicode="&#xeee5;" glyph-name="happy" d="M512 832c-211.698 0-384-172.302-384-384s172.302-384 384-384c211.698 0 384 172.302 384 384s-172.302 384-384 384zM512 768c177.11 0 320-142.89 320-320s-142.89-320-320-320c-177.11 0-320 142.89-320 320s142.89 320 320 320zM368 576c-26.51 0-48-21.49-48-48s21.49-48 48-48c26.51 0 48 21.49 48 48s-21.49 48-48 48zM656 576c-26.51 0-48-21.49-48-48s21.49-48 48-48c26.51 0 48 21.49 48 48s-21.49 48-48 48zM346 352l-55-32c44.265-76.395 126.534-128 221-128s176.735 51.605 221 128l-55 32c-33.239-57.365-94.77-96-166-96s-132.761 38.635-166 96z" />
<glyph unicode="&#xef87;" glyph-name="checked_checkbox" d="M160 800v-704h704v704h-704zM224 736h576v-576h-576v576zM681 599l-233-233-105 105-46-46 128-128 23-22 23 22 256 256-46 46z" />
<glyph unicode="&#xef92;" glyph-name="angle_left" d="M609 823l-352-352-22-23 22-23 352-352 46 46-329 329 329 329-46 46z" />
<glyph unicode="&#xef94;" glyph-name="angle_right" d="M415 823l-46-46 329-329-329-329 46-46 352 352 22 23-22 23-352 352z" />
<glyph unicode="&#xf005;" glyph-name="star" horiz-adv-x="951" d="M950.857 581.143c0-10.286-7.429-20-14.857-27.429l-207.429-202.286 49.143-285.714c0.571-4 0.571-7.429 0.571-11.429 0-14.857-6.857-28.571-23.429-28.571-8 0-16 2.857-22.857 6.857l-256.571 134.857-256.571-134.857c-7.429-4-14.857-6.857-22.857-6.857-16.571 0-24 13.714-24 28.571 0 4 0.571 7.429 1.143 11.429l49.143 285.714-208 202.286c-6.857 7.429-14.286 17.143-14.286 27.429 0 17.143 17.714 24 32 26.286l286.857 41.714 128.571 260c5.143 10.857 14.857 23.429 28 23.429s22.857-12.571 28-23.429l128.571-260 286.857-41.714c13.714-2.286 32-9.143 32-26.286z" />
<glyph unicode="&#xf00d;" glyph-name="why" horiz-adv-x="805" d="M509.34 389.447v-279.988c0-36.028-29.852-65.88-65.88-65.88h-65.88c-36.028 0-65.88 29.852-65.88 65.88v279.988l-98.819 49.41-136.906 79.261c-31.396 18.014-42.204 58.674-24.19 90.070l32.939 56.615c18.014 31.396 58.674 42.204 90.070 24.19l136.906-78.747 103.565-56.938c0 0 0 0 94.074 56.938l136.906 78.747c31.396 18.014 72.056 7.206 90.070-24.19l32.939-56.615c18.014-31.396 7.206-72.056-24.19-90.070l-136.906-79.261z" />
<glyph unicode="&#xf02e;" glyph-name="bookmark" horiz-adv-x="731" d="M665.143 877.714c8.571 0 17.143-1.714 25.143-5.143 25.143-9.714 41.143-33.143 41.143-58.857v-736.571c0-25.714-16-49.143-41.143-58.857-8-3.429-16.571-4.571-25.143-4.571-17.714 0-34.286 6.286-47.429 18.286l-252 242.286-252-242.286c-13.143-12-29.714-18.857-47.429-18.857-8.571 0-17.143 1.714-25.143 5.143-25.143 9.714-41.143 33.143-41.143 58.857v736.571c0 25.714 16 49.143 41.143 58.857 8 3.429 16.571 5.143 25.143 5.143h598.857z" />
<glyph unicode="&#xf055;" glyph-name="uniF055" horiz-adv-x="543" d="M0 205q0 68 31.5 126.75t88 98.25v529q0 64 44 108.5t108 44.5q64.5 0 108.75-44.5t44.25-108.5v-529q56.5-39.5 87.5-98.25t31-126.75q0-74-36.25-136.5t-98.75-98.75-136.5-36.25q-73.5 0-136 36.25t-99 98.75-36.5 136.5zM93.5 205q0-74.5 52.25-127.25t125.75-52.75q74.5 0 128.25 53.5t53.75 126.5q0 50-25.75 92.25t-70.25 65.75l-15 7.5q-8 3.5-8 15.5v573q0 26-18 43t-45 17q-26 0-44.25-17t-18.25-43v-573q0-12-7.5-15.5l-14.5-7.5q-44-23.5-68.75-65.5t-24.75-92.5zM135 205q0-57 39-97t94-40 95.5 40.25 40.5 96.75q0 50.5-34.75 89t-84.25 45.5v391.5q0 5-5.25 10.25t-11.75 5.25q-7 0-11.25-4.5t-4.25-11v-391.5q-49-7-83.25-45.5t-34.25-89z" />
<glyph unicode="&#xf067;" glyph-name="plus" horiz-adv-x="805" d="M804.571 530.286v-109.714c0-30.286-24.571-54.857-54.857-54.857h-237.714v-237.714c0-30.286-24.571-54.857-54.857-54.857h-109.714c-30.286 0-54.857 24.571-54.857 54.857v237.714h-237.714c-30.286 0-54.857 24.571-54.857 54.857v109.714c0 30.286 24.571 54.857 54.857 54.857h237.714v237.714c0 30.286 24.571 54.857 54.857 54.857h109.714c30.286 0 54.857-24.571 54.857-54.857v-237.714h237.714c30.286 0 54.857-24.571 54.857-54.857z" />
<glyph unicode="&#xf071;" glyph-name="triangle" d="M566.154 839.692l371.341-680.791c10.637-18.858 10.154-42.066-0.967-60.924s-31.429-30.462-53.187-30.462h-742.682c-21.758 0-42.066 11.604-53.187 30.462s-11.604 42.066-0.967 60.924l371.341 680.791c10.637 19.825 31.429 32.396 54.154 32.396s43.517-12.571 54.154-32.396z" />
<glyph unicode="&#xf0c8;" glyph-name="square" horiz-adv-x="878" d="M877.714 713.143v-548.571c0-90.857-73.714-164.571-164.571-164.571h-548.571c-90.857 0-164.571 73.714-164.571 164.571v548.571c0 90.857 73.714 164.571 164.571 164.571h548.571c90.857 0 164.571-73.714 164.571-164.571z" />
<glyph unicode="&#xf0e4;" glyph-name="dashboard" d="M219.429 292.571q0 30.286-21.429 51.714t-51.714 21.429-51.714-21.429-21.429-51.714 21.429-51.714 51.714-21.429 51.714 21.429 21.429 51.714zM329.143 548.571q0 30.286-21.429 51.714t-51.714 21.429-51.714-21.429-21.429-51.714 21.429-51.714 51.714-21.429 51.714 21.429 21.429 51.714zM573.714 273.714l57.714 218.286q3.429 14.857-4.286 27.714t-22 16.857-27.429-3.714-17.143-22.571l-57.714-218.286q-34.286-2.857-61.143-24.857t-36-56.286q-11.429-44 11.429-83.429t66.857-50.857 83.429 11.429 50.857 66.857q9.143 34.286-3.429 66.857t-41.143 52zM950.857 292.571q0 30.286-21.429 51.714t-51.714 21.429-51.714-21.429-21.429-51.714 21.429-51.714 51.714-21.429 51.714 21.429 21.429 51.714zM585.143 658.286q0 30.286-21.429 51.714t-51.714 21.429-51.714-21.429-21.429-51.714 21.429-51.714 51.714-21.429 51.714 21.429 21.429 51.714zM841.143 548.571q0 30.286-21.429 51.714t-51.714 21.429-51.714-21.429-21.429-51.714 21.429-51.714 51.714-21.429 51.714 21.429 21.429 51.714zM1024 292.571q0-149.143-80.571-276-10.857-16.571-30.857-16.571h-801.143q-20 0-30.857 16.571-80.571 126.286-80.571 276 0 104 40.571 198.857t109.143 163.429 163.429 109.143 198.857 40.571 198.857-40.571 163.429-109.143 109.143-163.429 40.571-198.857z" />
<glyph unicode="&#xf111;" glyph-name="circle" horiz-adv-x="878" d="M877.714 438.857c0-242.286-196.571-438.857-438.857-438.857s-438.857 196.571-438.857 438.857 196.571 438.857 438.857 438.857 438.857-196.571 438.857-438.857z" />
<glyph unicode="&#xf1fe;" glyph-name="area" horiz-adv-x="1010" d="M938.74 617.606l63.968-564.714h-984.768v395.108l311.477 395.108 400.47-395.108z" />
<glyph unicode="&#xf4cd;" glyph-name="resume_button" d="M224 800v-704h64v704h-64zM416 797v-698l50 35 454 314-38 26-466 323zM480 675l328-227-328-227v454z" />
<glyph unicode="&#xf76a;" glyph-name="counter" d="M64 704v-512h928v512h-928zM128 640h224v-384h-224v384zM416 640h224v-384h-224v384zM704 640h224v-384h-224v384zM736 608v-48c0-44.096 35.904-80 80-80s80 35.904 80 80c0 18.080-5.824 34.592-16 48h-144zM240 576c-43.81 0-80-36.19-80-80v-96c0-43.81 36.19-80 80-80s80 36.19 80 80v96c0 43.81-36.19 80-80 80zM528 576c-43.81 0-80-36.19-80-80v-96c0-43.81 36.19-80 80-80s80 36.19 80 80v96c0 43.81-36.19 80-80 80zM816 576c8.832 0 16-7.168 16-16s-7.168-16-16-16c-8.832 0-16 7.168-16 16s7.168 16 16 16zM240 512c9.182 0 16-6.818 16-16v-96c0-9.182-6.818-16-16-16s-16 6.818-16 16v96c0 9.182 6.818 16 16 16zM528 512c9.182 0 16-6.818 16-16v-96c0-9.182-6.818-16-16-16s-16 6.818-16 16v96c0 9.182 6.818 16 16 16zM736 448v-64h82c-11.776-23.040-26.568-56.608-37-96h67c17.248 54.976 42.616 93.392 43 94l5 8v58h-160z" />
</font>
</defs>
</svg>
