<?xml version="1.0" encoding="utf-8"?>
<!-- Generator: Adobe Illustrator 24.0.2, SVG Export Plug-In . SVG Version: 6.00 Build 0)  -->
<svg version="1.1" id="Livello_1" xmlns="http://www.w3.org/2000/svg" xmlns:xlink="http://www.w3.org/1999/xlink" x="0px" y="0px"
	 viewBox="0 0 141.7 85" style="enable-background:new 0 0 141.7 85;" xml:space="preserve">
<style type="text/css">
	.st0{enable-background:new    ;}
</style>
<g class="st0">
	<path d="M21.9,40.1v-2.5l13.3-6v2.6l-10.5,4.6l10.5,4.7v2.6L21.9,40.1z"/>
	<path d="M37.5,40.5c0.7,0,1.3-0.2,1.7-0.6c0.4-0.4,0.7-0.9,0.9-1.6s0.2-1.8,0.2-3.5c0-1.6,0-2.7,0.1-3.2c0.1-0.8,0.2-1.5,0.5-2
		c0.2-0.5,0.5-0.9,0.8-1.2c0.3-0.3,0.7-0.5,1.3-0.7c0.3-0.1,0.9-0.1,1.7-0.1h0.8v2.3H45c-0.9,0-1.6,0.2-1.9,0.5
		c-0.3,0.4-0.5,1.2-0.5,2.5c0,2.6-0.1,4.2-0.2,4.8c-0.2,1-0.4,1.9-0.8,2.4c-0.4,0.6-1,1.1-1.9,1.5c1,0.4,1.7,1.1,2.2,2.1
		c0.5,0.9,0.7,2.4,0.7,4.5c0,1.9,0,3,0.1,3.4c0.1,0.7,0.3,1.1,0.6,1.4s0.9,0.4,1.7,0.4h0.4v2.3h-0.8c-0.9,0-1.5-0.1-1.9-0.2
		c-0.6-0.2-1.1-0.6-1.5-1.1c-0.4-0.5-0.6-1.1-0.7-1.9c-0.1-0.8-0.2-2-0.2-3.8c0-1.8-0.1-3-0.2-3.6s-0.4-1.2-0.9-1.6
		c-0.4-0.4-1-0.6-1.7-0.6V40.5z"/>
	<path d="M46.8,40.5c0.7,0,1.3-0.2,1.7-0.6c0.4-0.4,0.7-0.9,0.9-1.6s0.2-1.8,0.2-3.5c0-1.6,0-2.7,0.1-3.2c0.1-0.8,0.2-1.5,0.5-2
		c0.2-0.5,0.5-0.9,0.8-1.2c0.3-0.3,0.7-0.5,1.3-0.7c0.3-0.1,0.9-0.1,1.7-0.1h0.8v2.3h-0.4c-0.9,0-1.6,0.2-1.9,0.5
		c-0.3,0.4-0.5,1.2-0.5,2.5c0,2.6-0.1,4.2-0.2,4.8c-0.2,1-0.4,1.9-0.8,2.4c-0.4,0.6-1,1.1-1.9,1.5c1,0.4,1.7,1.1,2.2,2.1
		c0.5,0.9,0.7,2.4,0.7,4.5c0,1.9,0,3,0.1,3.4c0.1,0.7,0.3,1.1,0.6,1.4s0.9,0.4,1.7,0.4h0.4v2.3H54c-0.9,0-1.5-0.1-1.9-0.2
		c-0.6-0.2-1.1-0.6-1.5-1.1c-0.4-0.5-0.6-1.1-0.7-1.9c-0.1-0.8-0.2-2-0.2-3.8c0-1.8-0.1-3-0.2-3.6s-0.4-1.2-0.9-1.6
		c-0.4-0.4-1-0.6-1.7-0.6V40.5z"/>
	<path d="M58,49.5v-3h2.8v3H58z"/>
	<path d="M65.8,49.5v-3h2.8v3H65.8z"/>
	<path d="M73.5,49.5v-3h2.8v3H73.5z"/>
	<path d="M87.4,40.5v2.4c-0.7,0-1.3,0.2-1.7,0.6s-0.7,0.9-0.9,1.6c-0.1,0.7-0.2,1.8-0.2,3.5c0,1.6,0,2.7-0.1,3.2
		c-0.1,0.8-0.2,1.5-0.5,2c-0.2,0.5-0.5,0.9-0.8,1.2s-0.7,0.5-1.3,0.7c-0.3,0.1-0.9,0.2-1.7,0.2h-0.8v-2.3h0.4c0.9,0,1.6-0.2,1.9-0.5
		c0.3-0.4,0.5-1.2,0.5-2.5c0-2.4,0-4,0.1-4.6c0.1-1.1,0.4-2,0.9-2.6c0.4-0.6,1.1-1.2,1.9-1.5c-1-0.5-1.8-1.2-2.2-2.1
		c-0.4-0.9-0.6-2.4-0.6-4.5c0-1.9,0-3-0.1-3.4c-0.1-0.7-0.2-1.1-0.5-1.4c-0.3-0.3-0.9-0.4-1.7-0.4h-0.4v-2.3h0.8
		c0.9,0,1.5,0.1,1.9,0.2c0.6,0.2,1.1,0.6,1.5,1.1c0.4,0.5,0.6,1.1,0.7,1.9c0.1,0.8,0.2,2,0.2,3.8c0,1.8,0.1,3,0.2,3.6
		c0.1,0.7,0.4,1.2,0.9,1.6S86.6,40.5,87.4,40.5z"/>
	<path d="M96.7,40.5v2.4c-0.7,0-1.3,0.2-1.7,0.6s-0.7,0.9-0.9,1.6c-0.1,0.7-0.2,1.8-0.2,3.5c0,1.6,0,2.7-0.1,3.2
		c-0.1,0.8-0.2,1.5-0.5,2c-0.2,0.5-0.5,0.9-0.8,1.2s-0.7,0.5-1.3,0.7c-0.3,0.1-0.9,0.2-1.7,0.2h-0.8v-2.3h0.4c0.9,0,1.6-0.2,1.9-0.5
		c0.3-0.4,0.5-1.2,0.5-2.5c0-2.4,0-4,0.1-4.6c0.1-1.1,0.4-2,0.9-2.6c0.4-0.6,1.1-1.2,1.9-1.5c-1-0.5-1.8-1.2-2.2-2.1
		c-0.4-0.9-0.6-2.4-0.6-4.5c0-1.9,0-3-0.1-3.4c-0.1-0.7-0.2-1.1-0.5-1.4c-0.3-0.3-0.9-0.4-1.7-0.4h-0.4v-2.3h0.8
		c0.9,0,1.5,0.1,1.9,0.2c0.6,0.2,1.1,0.6,1.5,1.1c0.4,0.5,0.6,1.1,0.7,1.9c0.1,0.8,0.2,2,0.2,3.8c0,1.8,0.1,3,0.2,3.6
		c0.1,0.7,0.4,1.2,0.9,1.6S96,40.5,96.7,40.5z"/>
	<path d="M97.5,49.8l5.8-22.2h2l-5.8,22.2H97.5z"/>
	<path d="M120.1,40.1l-13.3,6.1v-2.6l10.5-4.7l-10.5-4.6v-2.6l13.3,6V40.1z"/>
</g>
</svg>
